<mxfile host="app.diagrams.net" modified="2023-06-04T21:26:47.801Z" agent="Mozilla/5.0 (X11; Ubuntu; Linux x86_64; rv:109.0) Gecko/20100101 Firefox/114.0" version="21.3.4" etag="tSyig3irS9ZF9g0CqR18" type="github">
  <diagram name="Page-1" id="5peY6DIFnSPvOHOTLBqG">
    <mxGraphModel>
      <root>
        <mxCell id="0" />
        <mxCell id="1" parent="0" />
      </root>
    </mxGraphModel>
  </diagram>
</mxfile>
